<svg xmlns="http://www.w3.org/2000/svg" viewBox="0 0 75 82.7"><circle cx="27" cy="17.1" r="3.7"/><path d="M22.7 56.6c0 1.1.9 2.1 2.1 2.1 1.1 0 2.1-.9 2.1-2.1V39.2h.9v17.4c0 1.1.9 2.1 2.1 2.1 1.1 0 2.1-.9 2.1-2.1v-30h.9v11c0 2.2 2.9 2.2 2.9 0V26.4c0-2.5-1.4-4.9-4.3-4.9h-8.3c-2.6 0-4.3 2.1-4.3 4.8v11.3c0 2.2 2.9 2.2 2.9 0v-11h.9v30z"/><circle cx="47.5" cy="17.1" r="3.7"/><path d="M43.2 56.6c0 1.1.9 2.1 2.1 2.1 1.1 0 2.1-.9 2.1-2.1V39.2h.9v17.4c0 1.1.9 2.1 2.1 2.1 1.1 0 2.1-.9 2.1-2.1v-30h.9v11c0 2.2 2.9 2.2 2.9 0V26.4c0-2.5-1.4-4.9-4.3-4.9h-8.3c-2.6 0-4.3 2.1-4.3 4.8v11.3c0 2.2 2.9 2.2 2.9 0v-11h.9v30zM38.1 7.4c3.4 0 6.2 2 6.2 4.5 0 1.3-.7 2.4-1.8 3.2.2.8.5 1.6.5 1.6l-1.6-1c-1 .4-2.1.7-3.3.7-3.4 0-6.2-2-6.2-4.5s2.8-4.5 6.2-4.5z"/></svg>