<?xml version="1.0" encoding="utf-8"?>
<!-- Generator: Adobe Illustrator 20.1.0, SVG Export Plug-In . SVG Version: 6.00 Build 0)  -->
<svg version="1.1" id="Layer_1" xmlns="http://www.w3.org/2000/svg" xmlns:xlink="http://www.w3.org/1999/xlink" x="0px" y="0px"
	 viewBox="0 0 258.5 274.4" style="enable-background:new 0 0 258.5 274.4;" xml:space="preserve">
<g>
	<ellipse transform="matrix(0.9829 -0.1839 0.1839 0.9829 -0.9331 34.9434)" cx="187.9" cy="22.5" rx="22.5" ry="22.5"/>
	<path d="M255.3,198.5c-14.4-16.2-22.4-34.5-26.6-48.7c-2.1-7.1-3.3-13.2-4-17.4c-0.2-1.4-0.4-2.6-0.5-3.5c1.4-2.2,2.6-5,3.4-8.4
		c3.6-22.1,2.7-35.3-3.2-55.7c-4.4-14.8-16.5-20-25.2-18.3c-1.1,0.2-2.1,0.6-3.1,1.1c-2.3,0.7-4.2,2.4-5.1,4.8c0,0,0,0,0,0l0,0
		c-0.1,0.4-1.8,4.2-4.4,7.4c-1.4,1.7-3,3.2-4.5,4.2c-1.6,1-3.1,1.5-4.8,1.5c-1.5,0-3.3-0.4-5.8-1.7c-2.5-1.3-5.6-3.6-9.2-7.4
		c-3-3.2-8.1-3.3-11.3-0.3c-3.2,3-3.3,8.1-0.3,11.3c2.9,3,5.7,5.5,8.5,7.5c1-0.3,2.1-0.5,3.2-0.5c1.9,0,3.8,0.6,5.4,1.6
		c5.3,3.4,9.2,4.8,12,5.3c3.4-0.3,6.5-1.4,9.1-2.8c0.4-0.4,0.7-0.8,1.1-1.2c0.8-1,1.5-2.1,2.1-3.4c2.7-5,3.7-10.9,3.7-10.9
		c0.7-4.9,5-8.6,9.9-8.6c0.3,0,0.5,0,0.8,0.1c0.2,0,0.4,0,0.6,0c2.6,0.4,5,1.8,6.6,3.9c1.6,2.1,2.3,4.8,1.9,7.4
		c-0.2,1.6-1,5.6-2.8,10.6c-1.9,5.2-5.3,12.8-12.4,18.7c-2.3,1.9-5,3.4-7.8,4.5c0.5,7.4,0.4,14.9-0.8,21.9c-0.1,1-0.2,2-0.2,2.9
		c-3.2,2.5-6.6,5.7-10,9.6c-12.2,13.9-23.6,37.4-23.5,73c0,6.9,5.6,12.5,12.5,12.5c6.9,0,12.5-5.6,12.5-12.5
		c0.1-30.5,9.1-47.1,17.3-56.6c0.6-0.7,1.3-1.4,1.9-2.1c0.7,2.7,1.4,5.6,2.3,8.7c5,16.7,14.3,38.3,31.9,58.1
		c4.6,5.2,12.5,5.6,17.6,1C259.5,211.6,259.9,203.7,255.3,198.5L255.3,198.5L255.3,198.5z"/>
	<path d="M210.9,75.8c2-5.5,2.6-9.8,2.7-10.2c0.6-4.4-2.4-8.4-6.8-9.1c-0.1,0-0.3,0-0.4,0c-4.2-0.4-8,2.6-8.7,6.8h0l0,0h0
		c0,0.4-1.1,6.5-3.9,11.6c-0.1,0.2-0.2,0.3-0.3,0.5c-0.9,1.7-2,3.3-3.2,4.5c-0.5,0.5-1,1-1.5,1.4c-1.9,1.5-3.8,2.3-6.7,2.3
		c-2.3,0-5.4-0.6-9.5-2.5c-1.8-0.8-3.8-1.9-5.9-3.3c-1.6-1-3.5-1.4-5.2-1.2c-2.3,0.3-4.5,1.5-5.8,3.6c-2.4,3.7-1.4,8.7,2.4,11.1
		c8.8,5.7,16.7,8.4,24.2,8.5c0.1,0,0.1,0,0.2,0c3.7,0,7.2-0.8,10.2-2.1c2.5-1,4.7-2.4,6.6-4C205.6,88.3,208.9,81.3,210.9,75.8z"/>
	<ellipse transform="matrix(0.1839 -0.9829 0.9829 0.1839 35.4709 87.7255)" cx="70.6" cy="22.5" rx="22.5" ry="22.5"/>
	<path d="M4.2,216.2c5.2,4.6,13.1,4.1,17.6-1v0c17.6-19.8,26.9-41.4,31.9-58.1c0.9-3.1,1.7-6,2.3-8.7c1.4,1.4,2.8,3.1,4.2,4.9
		c7.5,9.9,15,26.1,15.1,53.8c0,6.9,5.6,12.5,12.5,12.5s12.5-5.6,12.5-12.5c0.1-35.6-11.3-59.1-23.5-73c-3.4-3.9-6.8-7-10-9.6
		c0-0.9-0.1-1.8-0.2-2.9c-1.5-8.6-1.3-17.9-0.4-26.9c4.4,2.4,9.6,3.8,15.5,3.8c0.1,0,0.1,0,0.2,0c5.2,0,10.8-1,16.9-3.2
		c4.2-1.5,6.4-6,4.9-10.2c-1.5-4.2-6-6.4-10.2-4.9c-4.8,1.7-8.6,2.3-11.7,2.3c-2.8,0-4.9-0.5-6.7-1.2c-2.4-0.1-4.8-0.5-7.1-1.1
		c-4.2-1-8.2-2.7-12.1-5.1c-3.7-2.3-6.2-4.5-7.5-5.8c-0.3-0.3-0.5-0.5-0.7-0.7c-1.8-2-2.8-4.5-2.7-7.2c0.1-2.7,1.2-5.1,3.2-7
		c1.9-1.7,4.3-2.7,6.8-2.7c2.8,0,5.4,1.2,7.3,3.2l0,0l0.1,0.1c0.1,0.1,0.4,0.4,0.7,0.7c0.5,0.5,1.7,1.4,3.2,2.3
		c1,0.6,2.1,1.2,3.5,1.8c-1.2-6.5-5-12.1-10.7-13.2c-8.6-1.8-20.8,3.4-25.2,18.3c-5.9,20.5-6.8,33.6-3.2,55.7c0.8,3.5,2,6.2,3.4,8.4
		c-0.5,4-1.8,12.2-4.9,22.2c-4.3,14-12.2,31.6-26.2,47.4C-1.4,203.7-1,211.6,4.2,216.2z"/>
	<path d="M62.7,57.8c-0.3-0.2-0.5-0.4-0.7-0.6c-0.4-0.3-0.7-0.6-0.8-0.7c-0.1-0.1-0.1-0.1-0.1-0.1h0c-3-3.2-8-3.4-11.3-0.4
		c-1.8,1.7-2.6,3.9-2.5,6.2c0,0.4,0.1,0.9,0.2,1.3c0.3,1.4,0.9,2.7,1.9,3.8c0.4,0.4,3,3.2,7.8,6.1c3,1.8,6.8,3.6,11.4,4.8
		c0.9,0.2,1.9,0.4,2.9,0.6c1.9,0.3,4,0.5,6.1,0.5c0.1,0,0.1,0,0.2,0c9.6,0,20.8-4.1,31.6-14.3c3.2-3,3.4-8.1,0.4-11.3
		c-3-3.2-8.1-3.4-11.3-0.4c-8.7,8.1-15.5,9.9-20.9,10c-2.6,0-5.1-0.5-7.2-1.3c-1.8-0.6-3.5-1.5-4.9-2.3
		C64.3,59.1,63.4,58.4,62.7,57.8z"/>
</g>
</svg>
